<svg width="210" height="297" viewBox="0 0 210 297" fill="none" xmlns="http://www.w3.org/2000/svg">
  <!-- Background color -->
  <rect width="210" height="297" fill="#FFD54F"/>
  
  <!-- Book spine shadow -->
  <rect x="0" y="0" width="20" height="297" fill="#FFC107"/>
  
  <!-- Decorative butterfly -->
  <path d="M105 80 C85 60, 75 90, 95 110 C75 130, 85 160, 105 140 C125 160, 135 130, 115 110 C135 90, 125 60, 105 80Z" fill="#FB8C00"/>
  <path d="M105 80 L105 140" stroke="#4E342E" stroke-width="3"/>
  
  <!-- Magical elements -->
  <circle cx="70" cy="60" r="5" fill="#FFFFFF"/>
  <circle cx="140" cy="60" r="5" fill="#FFFFFF"/>
  <circle cx="60" cy="120" r="5" fill="#FFFFFF"/>
  <circle cx="150" cy="120" r="5" fill="#FFFFFF"/>
  <circle cx="70" cy="180" r="5" fill="#FFFFFF"/>
  <circle cx="140" cy="180" r="5" fill="#FFFFFF"/>
  
  <!-- Title area -->
  <rect x="30" y="190" width="150" height="90" rx="5" fill="#FFFFFF"/>
  
  <!-- Title text -->
  <text x="105" y="215" font-family="serif" font-size="12" font-weight="bold" text-anchor="middle" fill="#4E342E">One Hundred Years</text>
  <text x="105" y="235" font-family="serif" font-size="12" font-weight="bold" text-anchor="middle" fill="#4E342E">of Solitude</text>
  
  <!-- Author name -->
  <text x="105" y="260" font-family="serif" font-size="10" text-anchor="middle" fill="#4E342E">Gabriel García Márquez</text>
</svg>